<?xml version="1.0" standalone="no"?>
<!DOCTYPE svg PUBLIC "-//W3C//DTD SVG 20010904//EN"
 "http://www.w3.org/TR/2001/REC-SVG-20010904/DTD/svg10.dtd">
<svg version="1.0" xmlns="http://www.w3.org/2000/svg"
 width="512.000000pt" height="512.000000pt" viewBox="0 0 512.000000 512.000000"
 preserveAspectRatio="xMidYMid meet">

<g transform="translate(0.000000,512.000000) scale(0.100000,-0.100000)"
fill="#000000" stroke="none">
<path d="M2472 4859 c-225 -38 -412 -199 -484 -419 -17 -53 -22 -98 -26 -236
l-4 -172 -30 -22 c-38 -28 -58 -76 -58 -140 0 -76 32 -130 104 -175 9 -5 27
-50 42 -100 32 -112 72 -183 146 -260 l58 -59 0 -91 0 -91 -222 -73 c-123 -40
-240 -82 -261 -93 -83 -42 -155 -129 -182 -221 -12 -41 -13 -42 -66 -50 -219
-31 -429 -89 -461 -128 -16 -19 -18 -50 -18 -310 l0 -289 -30 0 c-19 0 -42
-11 -62 -29 l-33 -29 -3 -203 c-2 -141 0 -211 9 -231 13 -32 55 -58 94 -58
l25 0 0 -443 c0 -384 2 -445 16 -465 19 -28 53 -28 123 -1 171 65 418 97 610
79 254 -23 458 -94 693 -241 46 -29 94 -52 108 -52 14 0 62 23 106 51 236 147
440 219 695 242 192 18 439 -14 610 -79 70 -27 104 -27 123 1 14 20 16 81 16
465 l0 443 25 0 c39 0 81 26 94 58 9 20 11 90 9 231 l-3 203 -33 29 c-20 18
-43 29 -62 29 l-30 0 0 288 c0 243 -2 291 -15 310 -27 38 -239 97 -464 129
-53 8 -54 9 -66 50 -29 97 -100 181 -192 226 -26 13 -144 54 -260 92 l-213 69
0 87 0 87 63 63 c72 74 127 172 156 279 11 41 28 80 37 85 43 27 66 50 86 88
38 76 22 182 -34 221 -12 9 -20 17 -17 19 2 2 24 15 49 29 73 42 118 144 86
193 -9 14 -22 25 -29 25 -33 0 -87 23 -110 46 -14 14 -37 60 -52 103 -77 232
-268 405 -486 440 -73 12 -103 12 -177 0z m-36 -748 c133 -66 211 -83 427 -88
l187 -5 0 -28 c0 -29 19 -49 62 -68 57 -24 42 -98 -26 -126 -41 -17 -47 -27
-76 -136 -29 -110 -57 -164 -120 -234 -37 -39 -74 -67 -128 -93 -75 -38 -77
-38 -197 -38 -117 0 -122 1 -190 34 -81 40 -167 121 -207 196 -14 28 -36 88
-48 135 -27 106 -33 116 -78 138 -45 21 -69 64 -54 97 8 18 22 24 65 29 111
14 229 96 274 191 9 19 20 35 24 35 4 0 42 -18 85 -39z m-11 -927 c66 -18 216
-18 285 1 30 8 59 15 63 15 4 0 7 -26 5 -57 l-3 -58 -55 -19 c-41 -14 -82 -19
-160 -19 -78 0 -119 5 -160 19 l-55 19 -3 64 c-3 58 -1 63 15 56 10 -4 41 -13
68 -21z m895 -359 c19 -9 48 -29 63 -44 28 -25 67 -90 67 -111 0 -6 -26 -10
-62 -10 -218 0 -531 -100 -754 -241 -33 -22 -67 -39 -74 -39 -7 0 -44 20 -84
44 -207 130 -454 213 -699 236 -55 6 -102 12 -105 14 -10 11 53 99 91 127 28
20 117 54 276 106 l234 76 66 -22 c84 -27 160 -41 223 -41 61 0 190 26 243 49
l39 17 221 -71 c121 -40 236 -80 255 -90z m-1565 -285 c250 -24 462 -95 673
-226 l72 -45 0 -925 0 -924 -52 31 c-84 49 -215 108 -313 141 -153 51 -255 69
-440 75 -193 6 -292 -4 -456 -46 l-109 -28 0 402 0 403 26 6 c34 9 111 81 135
127 10 21 21 55 25 78 6 39 8 41 68 61 103 34 212 50 339 50 202 -1 351 -38
533 -131 52 -27 100 -49 105 -49 5 0 18 9 29 20 19 19 20 33 20 310 0 338 13
303 -134 374 -185 89 -346 126 -551 126 -146 0 -262 -17 -385 -56 -124 -39
-120 -30 -120 -253 l0 -188 -45 21 -44 21 -1 271 0 271 93 26 c119 33 187 46
289 56 121 12 123 12 243 1z m1880 -5 c82 -7 182 -27 283 -56 l72 -22 0 -271
0 -272 -34 -12 c-32 -12 -118 -93 -127 -121 -4 -10 -20 -9 -76 8 -295 88 -639
57 -918 -82 -124 -61 -137 -73 -133 -115 2 -30 8 -38 30 -46 24 -8 43 -2 130
42 198 99 369 137 578 129 132 -6 196 -16 298 -49 47 -15 62 -24 62 -39 0 -31
37 -120 61 -145 28 -29 28 -29 -59 0 -139 48 -226 61 -402 61 -224 0 -385 -37
-570 -130 -119 -59 -132 -71 -128 -113 2 -30 8 -38 30 -46 24 -8 43 -2 130 42
296 148 599 172 906 71 87 -29 94 -30 117 -15 17 11 25 26 25 45 l0 30 40 -17
40 -17 0 -402 0 -401 -87 24 c-285 80 -633 72 -907 -20 -107 -36 -237 -94
-323 -145 l-53 -31 0 924 0 925 83 49 c226 136 434 205 672 222 98 7 117 7
260 -5z m-1701 -301 c104 -20 186 -47 277 -93 l74 -36 3 -199 c2 -157 0 -197
-10 -193 -132 57 -175 73 -257 94 -78 20 -128 26 -266 30 -171 5 -202 2 -392
-44 l-23 -5 0 199 0 200 73 21 c177 51 343 59 521 26z m-810 -447 c47 -27 76
-77 76 -132 0 -85 -71 -154 -157 -155 l-43 0 0 155 0 155 43 0 c25 0 58 -9 81
-23z m2996 -132 l0 -155 -42 0 c-87 1 -158 70 -158 155 0 85 71 154 158 155
l42 0 0 -155z"/>
<path d="M1545 1540 c-115 -18 -283 -67 -311 -91 -17 -14 -18 -71 -2 -87 18
-18 57 -15 138 13 111 38 220 55 350 55 202 0 373 -43 551 -138 85 -45 87 -46
113 -29 26 17 35 57 18 84 -10 15 -147 88 -224 119 -132 53 -252 75 -418 79
-85 2 -182 0 -215 -5z"/>
<path d="M1514 1245 c-92 -16 -238 -60 -271 -81 -16 -10 -23 -24 -23 -47 0
-61 40 -72 129 -37 91 36 240 60 369 60 204 0 375 -43 553 -138 85 -45 87 -46
113 -29 26 17 35 57 18 84 -10 15 -147 88 -224 119 -134 53 -252 75 -423 79
-110 3 -185 0 -241 -10z"/>
<path d="M1514 955 c-101 -18 -268 -70 -284 -89 -6 -8 -10 -30 -8 -48 5 -52
39 -58 140 -25 123 41 226 57 358 57 202 0 373 -43 551 -138 85 -45 87 -46
113 -29 30 20 35 66 10 92 -37 37 -242 126 -359 156 -104 27 -141 31 -280 35
-110 2 -186 -1 -241 -11z"/>
<path d="M3260 2124 c-182 -23 -419 -106 -532 -186 -46 -32 -30 -108 22 -108
10 0 62 22 116 49 297 149 597 170 917 65 73 -24 79 -25 102 -10 29 19 34 66
10 90 -19 18 -140 58 -250 81 -78 17 -312 28 -385 19z"/>
<path d="M3255 1253 c-181 -22 -413 -104 -527 -185 -46 -32 -30 -108 22 -108
10 0 61 22 113 48 285 147 601 172 905 71 88 -29 94 -30 118 -14 21 13 25 23
22 53 -3 35 -6 38 -62 60 -76 30 -185 58 -281 71 -72 10 -244 13 -310 4z"/>
<path d="M3255 964 c-159 -23 -296 -65 -420 -127 -124 -61 -137 -73 -133 -115
2 -30 8 -39 30 -46 23 -8 44 -1 140 47 289 143 600 166 898 66 86 -28 93 -29
116 -14 28 18 33 65 9 88 -18 19 -144 61 -245 83 -72 15 -331 27 -395 18z"/>
</g>
</svg>
