<?xml version="1.0" encoding="UTF-8"?>
<!DOCTYPE svg PUBLIC "-//W3C//DTD SVG 1.1//EN" "http://www.w3.org/Graphics/SVG/1.1/DTD/svg11.dtd">
<svg xmlns="http://www.w3.org/2000/svg" version="1.1" width="512px" height="512px" style="shape-rendering:geometricPrecision; text-rendering:geometricPrecision; image-rendering:optimizeQuality; fill-rule:evenodd; clip-rule:evenodd" xmlns:xlink="http://www.w3.org/1999/xlink">
<g><path style="opacity:0.98" fill="#000000" d="M 511.5,21.5 C 511.5,169.5 511.5,317.5 511.5,465.5C 508.154,477.014 500.821,484.847 489.5,489C 346.167,489.667 202.833,489.667 59.5,489C 71.3053,481.219 78.472,470.386 81,456.5C 81.5,311.5 81.6667,166.5 81.5,21.5C 224.833,21.5 368.167,21.5 511.5,21.5 Z M 233.5,57.5 C 247.837,57.3334 262.171,57.5001 276.5,58C 281.325,60.1348 281.659,62.8015 277.5,66C 264.171,66.4999 250.837,66.6666 237.5,66.5C 237.5,78.8333 237.5,91.1667 237.5,103.5C 250.837,103.333 264.171,103.5 277.5,104C 280.838,105.988 281.172,108.321 278.5,111C 264.837,111.5 251.171,111.667 237.5,111.5C 237.5,124.167 237.5,136.833 237.5,149.5C 251.171,149.333 264.837,149.5 278.5,150C 281.167,152.333 281.167,154.667 278.5,157C 262.833,157.667 247.167,157.667 231.5,157C 231,156.5 230.5,156 230,155.5C 229.333,123.833 229.333,92.1667 230,60.5C 231.145,59.3636 232.312,58.3636 233.5,57.5 Z M 133.5,58.5 C 136.785,58.2693 139.285,59.6026 141,62.5C 160.283,88.7836 179.949,114.784 200,140.5C 200.333,113.833 200.667,87.1667 201,60.5C 203.075,58.3517 205.408,58.0183 208,59.5C 208.667,91.5 208.667,123.5 208,155.5C 205.756,157.994 203.423,157.994 201,155.5C 180.994,128.668 160.827,102.001 140.5,75.5C 139.667,102.16 139.167,128.827 139,155.5C 136.667,158.167 134.333,158.167 132,155.5C 131.333,123.833 131.333,92.1667 132,60.5C 132.717,59.9558 133.217,59.2891 133.5,58.5 Z M 302.5,58.5 C 305.044,58.1043 307.211,58.771 309,60.5C 309.333,86.1667 309.667,111.833 310,137.5C 320.918,119.999 331.585,102.333 342,84.5C 345.348,81.819 348.015,82.4857 350,86.5C 360.082,103.667 370.415,120.667 381,137.5C 381.333,111.833 381.667,86.1667 382,60.5C 383.884,58.4237 386.051,58.0903 388.5,59.5C 389.83,91.6964 389.83,123.863 388.5,156C 385.225,157.962 382.725,157.128 381,153.5C 369.403,133.964 357.57,114.63 345.5,95.5C 332.679,115.129 320.346,135.129 308.5,155.5C 306.287,158.08 304.12,158.08 302,155.5C 301.175,123.095 301.341,90.7617 302.5,58.5 Z M 429.5,58.5 C 445.557,56.4397 456.723,62.773 463,77.5C 463.667,80.8333 463.667,84.1667 463,87.5C 461.274,88.5762 459.441,88.7429 457.5,88C 454.735,69.2263 444.402,62.8929 426.5,69C 417.717,76.9158 416.217,86.0825 422,96.5C 427.235,102.198 433.735,104.698 441.5,104C 461.876,110.923 468.043,124.423 460,144.5C 449.982,158.058 437.482,160.891 422.5,153C 413.686,147.204 409.853,139.037 411,128.5C 413.679,125.828 416.012,126.162 418,129.5C 418.611,141.944 425.111,148.61 437.5,149.5C 451.698,147.121 457.532,138.788 455,124.5C 453.622,119.792 450.788,116.292 446.5,114C 441.322,112.202 435.989,111.202 430.5,111C 415.305,105.455 408.805,94.6221 411,78.5C 414.291,69.047 420.458,62.3803 429.5,58.5 Z M 129.5,195.5 C 241.834,195.333 354.167,195.5 466.5,196C 467,196.5 467.5,197 468,197.5C 468.667,228.5 468.667,259.5 468,290.5C 467.25,291.126 466.416,291.626 465.5,292C 353.833,292.667 242.167,292.667 130.5,292C 129.584,291.626 128.75,291.126 128,290.5C 127.333,259.5 127.333,228.5 128,197.5C 128.717,196.956 129.217,196.289 129.5,195.5 Z M 127.5,338.5 C 240.5,338.333 353.5,338.5 466.5,339C 469.167,341.333 469.167,343.667 466.5,346C 353.167,346.667 239.833,346.667 126.5,346C 123.86,343.11 124.194,340.61 127.5,338.5 Z M 127.5,391.5 C 240.167,391.333 352.834,391.5 465.5,392C 468.553,393.581 469.22,395.914 467.5,399C 353.833,399.667 240.167,399.667 126.5,399C 125.707,397.915 125.04,396.748 124.5,395.5C 125.524,394.148 126.524,392.815 127.5,391.5 Z M 128.5,444.5 C 240.834,444.333 353.167,444.5 465.5,445C 468.306,446.305 469.14,448.472 468,451.5C 466.933,452.191 465.766,452.691 464.5,453C 352.5,453.667 240.5,453.667 128.5,453C 123.262,450.063 123.262,447.23 128.5,444.5 Z"/></g>
<g><path style="opacity:0.981" fill="#000000" d="M 135.5,203.5 C 243.833,203.5 352.167,203.5 460.5,203.5C 460.5,230.5 460.5,257.5 460.5,284.5C 352.167,284.5 243.833,284.5 135.5,284.5C 135.5,257.5 135.5,230.5 135.5,203.5 Z"/></g>
<g><path style="opacity:0.989" fill="#000000" d="M -0.5,311.5 C 24.1667,311.5 48.8333,311.5 73.5,311.5C 73.6667,359.834 73.5,408.168 73,456.5C 66.7495,479.726 51.5828,489.56 27.5,486C 13.3978,482.061 4.06445,473.228 -0.5,459.5C -0.5,410.167 -0.5,360.833 -0.5,311.5 Z"/></g>
</svg>
